<?xml version="1.0" encoding="UTF-8"?> <svg xmlns="http://www.w3.org/2000/svg" width="452" height="234" viewBox="0 0 452 234" fill="none"><g filter="url(#filter0_d_537_3)"><path fill-rule="evenodd" clip-rule="evenodd" d="M120.029 73.1677L57 60.5686L78.2447 122.026L80.1937 150.742C81.2821 166.779 95.1647 178.897 111.201 177.808L368.661 160.335C384.697 159.246 396.815 145.364 395.727 129.327L392.64 83.8363C391.551 67.7997 377.669 55.6818 361.632 56.7702L120.029 73.1677Z" fill="#47EEF7"></path></g><rect width="304.618" height="92.1614" rx="27.1634" transform="matrix(-0.997705 0.0677138 0.0677138 0.997705 385.249 61.0086)" fill="#A1FAFF" stroke="#101010" stroke-width="0.97012" stroke-linecap="round" stroke-dasharray="4.85 4.85"></rect><path d="M144.187 104.665C151.35 112.58 149.738 128.066 142.688 134.986C137.14 141.042 125.653 139.965 122.365 132.153C120.017 126.55 121.196 120.35 122.184 115.029C116.84 102.26 136.337 95.6791 144.187 104.665ZM136.425 120.661C136.58 118.529 136.136 114.614 135.217 113.06C132.18 108.131 128.691 111.89 128.105 114.199C127.91 114.968 127.511 116.235 126.766 116.857C127.565 119.888 128.156 123.253 129.228 126.276C129.765 127.842 130.942 128.898 132.569 128.577C135.644 127.394 136.08 123.726 136.425 120.661ZM166.662 105.47C166.114 107.232 164.611 108.04 163.149 108.411C165.415 114.89 165.67 121.646 164.734 128.711C167.255 129.073 168.333 132.314 167.524 134.465C166.225 138.486 160.252 137.573 160.252 137.573C153.464 136.793 145.161 134.585 153.807 129.964C151.395 122.234 153.832 114.307 154.949 107.836C144.641 106.07 150.317 100.664 157.811 99.5139C162.272 99.1085 168.163 99.097 166.662 105.47ZM195.676 98.388C197.906 98.1581 202.497 107.623 201.955 116.913C201.665 121.831 201.578 131.762 196.475 134.423C194.649 135.405 192.042 133.955 190.584 132.634C187.669 129.993 184.114 126.008 182.72 123.158C182.756 129.867 181.868 140.367 174.179 136.777C168.9 133.552 170.37 122.434 170.37 122.434C170.728 117.95 172.224 100.395 177.658 99.6875C178.309 99.559 178.86 99.7608 179.414 100.017C188.315 104.008 192.329 123.418 193.251 123.227C193.738 123.103 192.553 118.119 192.691 111.733C192.833 107.364 193.611 98.6676 195.676 98.388ZM226.616 122.289C229.546 125.42 234.44 130.403 229.6 134.584C223.651 139.997 218.334 131.809 217.394 129.546C216.051 133.895 209.887 139.425 206.013 135.721C205.056 134.713 205.377 132.685 205.563 131.589C205.739 130.165 205.709 129.184 205.736 128.256C206.311 121.911 206.302 116.074 206.88 109.838C206.982 107.762 207.409 105.622 207.082 103.777C206.714 102.424 205.495 101.806 204.596 100.905C203.81 98.3099 208.041 97.5294 210.14 98.3944C214.05 99.6419 215.982 104.058 216.744 107.69C221.148 103.522 226.727 98.5013 229.013 100.179C231.409 101.853 229.627 109.816 226.389 114.659C225.448 116.05 224.086 117.946 222.769 119.512C224.156 120.289 225.548 121.23 226.616 122.289ZM269.289 100.945C276.453 108.86 274.84 124.347 267.79 131.266C262.243 137.322 250.755 136.246 247.468 128.433C245.119 122.83 246.298 116.631 247.286 111.31C241.942 98.5399 261.439 91.9595 269.289 100.945ZM261.528 116.941C261.682 114.809 261.239 110.895 260.32 109.34C257.282 104.412 253.793 108.17 253.207 110.479C253.012 111.249 252.613 112.515 251.868 113.137C252.667 116.168 253.258 119.533 254.33 122.556C254.868 124.122 256.045 125.178 257.672 124.857C260.746 123.675 261.182 120.007 261.528 116.941ZM291.764 101.75C291.216 103.512 289.713 104.32 288.251 104.691C290.517 111.17 290.772 117.927 289.837 124.992C292.357 125.353 293.435 128.594 292.626 130.746C291.327 134.767 285.354 133.853 285.354 133.853C278.567 133.073 270.264 130.865 278.909 126.244C276.497 118.515 278.934 110.587 280.051 104.117C269.743 102.35 275.419 96.9444 282.913 95.7942C287.374 95.3888 293.266 95.3773 291.764 101.75ZM320.778 94.6684C323.008 94.4384 327.599 103.903 327.057 113.193C326.767 118.111 326.68 128.042 321.577 130.703C319.751 131.685 317.144 130.235 315.687 128.914C312.771 126.274 309.216 122.288 307.822 119.438C307.858 126.147 306.97 136.647 299.281 133.057C294.002 129.832 295.472 118.714 295.472 118.714C295.83 114.23 297.326 96.6749 302.76 95.9678C303.411 95.8394 303.963 96.0412 304.516 96.2975C313.417 100.288 317.431 119.698 318.353 119.507C318.84 119.383 317.655 114.4 317.793 108.013C317.936 103.645 318.714 94.948 320.778 94.6684ZM351.718 118.569C354.648 121.701 359.542 126.683 354.702 130.864C348.753 136.278 343.437 128.089 342.496 125.826C341.153 130.176 334.989 135.705 331.115 132.002C330.158 130.994 330.479 128.966 330.665 127.869C330.841 126.445 330.812 125.464 330.839 124.536C331.414 118.191 331.404 112.354 331.982 106.118C332.084 104.042 332.511 101.902 332.184 100.057C331.816 98.7043 330.598 98.0859 329.698 97.1853C328.912 94.5902 333.144 93.8098 335.242 94.6747C339.152 95.9223 341.084 100.338 341.847 103.97C346.25 99.8026 351.829 94.7816 354.116 96.4593C356.511 98.1337 354.729 106.097 351.491 110.939C350.551 112.331 349.189 114.226 347.871 115.793C349.258 116.57 350.65 117.51 351.718 118.569Z" fill="#101010"></path><path d="M116.028 158.752C107.674 156.45 104.704 153.814 97.9024 146.124C91.1009 138.434 88.1854 153.305 93.9853 157.802L97.2759 160.024L103.857 164.469C106.986 167.05 115.233 167.722 116.524 166.054C118.571 162.82 118.352 161.241 116.028 158.752Z" fill="white"></path><path opacity="0.6" d="M350.668 76.3352C350.668 76.3352 353.112 72.5447 368.276 85.5597C383.441 98.5748 386.574 83.0945 379.103 77.4708L374.863 74.6931L366.384 69.1376C362.354 65.909 351.717 65.0865 350.047 67.1809C347.397 71.2413 347.702 79.602 350.668 76.3352Z" fill="white"></path><defs><filter id="filter0_d_537_3" x="0.968327" y="0.670506" width="450.858" height="233.238" filterUnits="userSpaceOnUse" color-interpolation-filters="sRGB"><feFlood flood-opacity="0" result="BackgroundImageFix"></feFlood><feColorMatrix in="SourceAlpha" type="matrix" values="0 0 0 0 0 0 0 0 0 0 0 0 0 0 0 0 0 0 127 0" result="hardAlpha"></feColorMatrix><feOffset></feOffset><feGaussianBlur stdDeviation="28.0159"></feGaussianBlur><feComposite in2="hardAlpha" operator="out"></feComposite><feColorMatrix type="matrix" values="0 0 0 0 0 0 0 0 0 0 0 0 0 0 0 0 0 0 0.12 0"></feColorMatrix><feBlend mode="normal" in2="BackgroundImageFix" result="effect1_dropShadow_537_3"></feBlend><feBlend mode="normal" in="SourceGraphic" in2="effect1_dropShadow_537_3" result="shape"></feBlend></filter></defs></svg> 